# Block1
v -0.4999999 -0.4937499 0.5
v -0.4999999 -0.4937499 0.5
v -0.4999999 -0.4937501 -0.4999999
v -0.4999999 -0.4937501 -0.4999999
v 0.4999999 -0.4937499 0.4999999
v 0.4999999 -0.4937499 0.4999999
v 0.4999999 -0.4937501 -0.5
v 0.4999999 -0.4937501 -0.5
v 0.4999999 -0.4937499 0.4999999
v -0.4999999 -0.4937499 0.5
v -0.4999999 -0.4937501 -0.4999999
v 0.4999999 -0.4937501 -0.5
v -0.4999999 -0.4937501 -0.4999999
v -0.4999999 -0.4937501 -0.4999999
v 0.4999999 -0.4937501 -0.5
v 0.4999999 -0.4937501 -0.5
v -0.4999999 -0.4937499 0.5
v 0.4999999 -0.4937499 0.4999999
v 0.4999999 -0.4937501 -0.5
v -0.4999999 -0.4937501 -0.4999999
v 0.4999999 -0.4937499 0.4999999
v 0.4999999 -0.4937499 0.4999999
v -0.4999999 -0.4937499 0.5
v -0.4999999 -0.4937499 0.5
vn -1 0 1.192093E-07
vn -1 0 1.192093E-07
vn -1 0 1.192093E-07
vn -1 0 1.192093E-07
vn 1 0 -1.192093E-07
vn 1 0 -1.192093E-07
vn 1 0 -1.192093E-07
vn 1 0 -1.192093E-07
vn 1.192093E-07 -1 0
vn 1.192093E-07 -1 0
vn 1.192093E-07 -1 0
vn 1.192093E-07 -1 0
vn 0 -1.192093E-07 -1
vn 0 -1.192093E-07 -1
vn 0 -1.192093E-07 -1
vn 0 -1.192093E-07 -1
vn -1.192093E-07 1 0
vn -1.192093E-07 1 0
vn -1.192093E-07 1 0
vn -1.192093E-07 1 0
vn 0 1.192093E-07 1
vn 0 1.192093E-07 1
vn 0 1.192093E-07 1
vn 0 1.192093E-07 1
vt 0.5 0.5
vt 0.5 0.5
vt 0.5 0
vt 0.5 0
vt 1 0.5
vt 1 0.5
vt 1 0
vt 1 0
vt 1 0.5
vt 0.5 0.5
vt 0.5 0
vt 1 0
vt 0.5 1
vt 0.5 1
vt 0.5 0.5
vt 0.5 0.5
vt 0.5 0.5
vt 0 0.5
vt 0 0
vt 0.5 0
vt 0.5 1
vt 0.5 1
vt 0.5 0.5
vt 0.5 0.5
f 1/1/1 3/3/3 4/4/4
f 1/1/1 2/2/2 3/3/3
f 5/5/5 7/7/7 8/8/8
f 5/5/5 6/6/6 7/7/7
f 9/9/9 11/11/11 12/12/12
f 9/9/9 10/10/10 11/11/11
f 13/13/13 15/15/15 16/16/16
f 13/13/13 14/14/14 15/15/15
f 17/17/17 19/19/19 20/20/20
f 17/17/17 18/18/18 19/19/19
f 21/21/21 23/23/23 24/24/24
f 21/21/21 22/22/22 23/23/23

# leave
v -0.4062499 -0.4814228 0.3999495
v -0.4062499 -0.4814228 0.3999495
v -0.4062499 -0.3584391 -0.01990904
v -0.4062499 -0.3584391 -0.01990904
v 0.03125003 -0.4814228 0.3999495
v 0.03125003 -0.4814228 0.3999495
v 0.03125001 -0.3584391 -0.0199091
v 0.03125001 -0.3584391 -0.0199091
v 0.03125003 -0.4814228 0.3999495
v -0.4062499 -0.4814228 0.3999495
v -0.4062499 -0.3584391 -0.01990904
v 0.03125001 -0.3584391 -0.0199091
v -0.4062499 -0.3584391 -0.01990904
v -0.4062499 -0.3584391 -0.01990904
v 0.03125001 -0.3584391 -0.0199091
v 0.03125001 -0.3584391 -0.0199091
v -0.4062499 -0.4814228 0.3999495
v 0.03125003 -0.4814228 0.3999495
v 0.03125001 -0.3584391 -0.0199091
v -0.4062499 -0.3584391 -0.01990904
v 0.03125003 -0.4814228 0.3999495
v 0.03125003 -0.4814228 0.3999495
v -0.4062499 -0.4814228 0.3999495
v -0.4062499 -0.4814228 0.3999495
vn -1 0 1.192093E-07
vn -1 0 1.192093E-07
vn -1 0 1.192093E-07
vn -1 0 1.192093E-07
vn 1 0 -1.192093E-07
vn 1 0 -1.192093E-07
vn 1 0 -1.192093E-07
vn 1 0 -1.192093E-07
vn 1.144024E-07 -0.9596769 -0.2811058
vn 1.144024E-07 -0.9596769 -0.2811058
vn 1.144024E-07 -0.9596769 -0.2811058
vn 1.144024E-07 -0.9596769 -0.2811058
vn -3.351043E-08 0.2811057 -0.9596769
vn -3.351043E-08 0.2811057 -0.9596769
vn -3.351043E-08 0.2811057 -0.9596769
vn -3.351043E-08 0.2811057 -0.9596769
vn -1.144024E-07 0.9596769 0.2811058
vn -1.144024E-07 0.9596769 0.2811058
vn -1.144024E-07 0.9596769 0.2811058
vn -1.144024E-07 0.9596769 0.2811058
vn 3.351043E-08 -0.2811057 0.9596769
vn 3.351043E-08 -0.2811057 0.9596769
vn 3.351043E-08 -0.2811057 0.9596769
vn 3.351043E-08 -0.2811057 0.9596769
vt 0.71875 0.9375
vt 0.71875 0.9375
vt 0.71875 0.71875
vt 0.71875 0.71875
vt 0.9375 0.9375
vt 0.9375 0.9375
vt 0.9375 0.71875
vt 0.9375 0.71875
vt 0.9375 0.9375
vt 0.71875 0.9375
vt 0.71875 0.71875
vt 0.9375 0.71875
vt 0.71875 1.15625
vt 0.71875 1.15625
vt 0.71875 0.9375
vt 0.71875 0.9375
vt 0.71875 0.9375
vt 0.5 0.9375
vt 0.5 0.71875
vt 0.71875 0.71875
vt 0.71875 1.15625
vt 0.71875 1.15625
vt 0.71875 0.9375
vt 0.71875 0.9375
f 25/25/25 27/27/27 28/28/28
f 25/25/25 26/26/26 27/27/27
f 29/29/29 31/31/31 32/32/32
f 29/29/29 30/30/30 31/31/31
f 33/33/33 35/35/35 36/36/36
f 33/33/33 34/34/34 35/35/35
f 37/37/37 39/39/39 40/40/40
f 37/37/37 38/38/38 39/39/39
f 41/41/41 43/43/43 44/44/44
f 41/41/41 42/42/42 43/43/43
f 45/45/45 47/47/47 48/48/48
f 45/45/45 46/46/46 47/47/47

# leave
v -0.4687499 -0.4989919 -0.1025705
v -0.4687499 -0.4989919 -0.1025705
v -0.4687499 -0.3760082 -0.522429
v -0.4687499 -0.3760082 -0.522429
v -0.03124993 -0.4989919 -0.1025705
v -0.03124993 -0.4989919 -0.1025705
v -0.03124994 -0.3760082 -0.522429
v -0.03124994 -0.3760082 -0.522429
v -0.03124993 -0.4989919 -0.1025705
v -0.4687499 -0.4989919 -0.1025705
v -0.4687499 -0.3760082 -0.522429
v -0.03124994 -0.3760082 -0.522429
v -0.4687499 -0.3760082 -0.522429
v -0.4687499 -0.3760082 -0.522429
v -0.03124994 -0.3760082 -0.522429
v -0.03124994 -0.3760082 -0.522429
v -0.4687499 -0.4989919 -0.1025705
v -0.03124993 -0.4989919 -0.1025705
v -0.03124994 -0.3760082 -0.522429
v -0.4687499 -0.3760082 -0.522429
v -0.03124993 -0.4989919 -0.1025705
v -0.03124993 -0.4989919 -0.1025705
v -0.4687499 -0.4989919 -0.1025705
v -0.4687499 -0.4989919 -0.1025705
vn -1 0 1.192093E-07
vn -1 0 1.192093E-07
vn -1 0 1.192093E-07
vn -1 0 1.192093E-07
vn 1 0 -1.192093E-07
vn 1 0 -1.192093E-07
vn 1 0 -1.192093E-07
vn 1 0 -1.192093E-07
vn 1.144024E-07 -0.9596769 -0.2811057
vn 1.144024E-07 -0.9596769 -0.2811057
vn 1.144024E-07 -0.9596769 -0.2811057
vn 1.144024E-07 -0.9596769 -0.2811057
vn -3.351042E-08 0.2811056 -0.9596769
vn -3.351042E-08 0.2811056 -0.9596769
vn -3.351042E-08 0.2811056 -0.9596769
vn -3.351042E-08 0.2811056 -0.9596769
vn -1.144024E-07 0.9596769 0.2811057
vn -1.144024E-07 0.9596769 0.2811057
vn -1.144024E-07 0.9596769 0.2811057
vn -1.144024E-07 0.9596769 0.2811057
vn 3.351042E-08 -0.2811056 0.9596769
vn 3.351042E-08 -0.2811056 0.9596769
vn 3.351042E-08 -0.2811056 0.9596769
vn 3.351042E-08 -0.2811056 0.9596769
vt 0.71875 0.71875
vt 0.71875 0.71875
vt 0.71875 0.5
vt 0.71875 0.5
vt 0.9375 0.71875
vt 0.9375 0.71875
vt 0.9375 0.5
vt 0.9375 0.5
vt 0.9375 0.71875
vt 0.71875 0.71875
vt 0.71875 0.5
vt 0.9375 0.5
vt 0.71875 0.9375
vt 0.71875 0.9375
vt 0.71875 0.71875
vt 0.71875 0.71875
vt 0.71875 0.71875
vt 0.5 0.71875
vt 0.5 0.5
vt 0.71875 0.5
vt 0.71875 0.9375
vt 0.71875 0.9375
vt 0.71875 0.71875
vt 0.71875 0.71875
f 49/49/49 51/51/51 52/52/52
f 49/49/49 50/50/50 51/51/51
f 53/53/53 55/55/55 56/56/56
f 53/53/53 54/54/54 55/55/55
f 57/57/57 59/59/59 60/60/60
f 57/57/57 58/58/58 59/59/59
f 61/61/61 63/63/63 64/64/64
f 61/61/61 62/62/62 63/63/63
f 65/65/65 67/67/67 68/68/68
f 65/65/65 66/66/66 67/67/67
f 69/69/69 71/71/71 72/72/72
f 69/69/69 70/70/70 71/71/71

# leave
v 0.03125 -0.4989918 0.4599292
v 0.03125 -0.4989918 0.4599292
v 0.03124999 -0.3760081 0.04007069
v 0.03124999 -0.3760081 0.04007069
v 0.4687499 -0.4989918 0.4599292
v 0.4687499 -0.4989918 0.4599292
v 0.4687499 -0.3760081 0.04007064
v 0.4687499 -0.3760081 0.04007064
v 0.4687499 -0.4989918 0.4599292
v 0.03125 -0.4989918 0.4599292
v 0.03124999 -0.3760081 0.04007069
v 0.4687499 -0.3760081 0.04007064
v 0.03124999 -0.3760081 0.04007069
v 0.03124999 -0.3760081 0.04007069
v 0.4687499 -0.3760081 0.04007064
v 0.4687499 -0.3760081 0.04007064
v 0.03125 -0.4989918 0.4599292
v 0.4687499 -0.4989918 0.4599292
v 0.4687499 -0.3760081 0.04007064
v 0.03124999 -0.3760081 0.04007069
v 0.4687499 -0.4989918 0.4599292
v 0.4687499 -0.4989918 0.4599292
v 0.03125 -0.4989918 0.4599292
v 0.03125 -0.4989918 0.4599292
vn -1 0 1.192093E-07
vn -1 0 1.192093E-07
vn -1 0 1.192093E-07
vn -1 0 1.192093E-07
vn 1 0 -1.192093E-07
vn 1 0 -1.192093E-07
vn 1 0 -1.192093E-07
vn 1 0 -1.192093E-07
vn 1.144024E-07 -0.9596769 -0.2811058
vn 1.144024E-07 -0.9596769 -0.2811058
vn 1.144024E-07 -0.9596769 -0.2811058
vn 1.144024E-07 -0.9596769 -0.2811058
vn -3.351042E-08 0.2811057 -0.9596769
vn -3.351042E-08 0.2811057 -0.9596769
vn -3.351042E-08 0.2811057 -0.9596769
vn -3.351042E-08 0.2811057 -0.9596769
vn -1.144024E-07 0.9596769 0.2811058
vn -1.144024E-07 0.9596769 0.2811058
vn -1.144024E-07 0.9596769 0.2811058
vn -1.144024E-07 0.9596769 0.2811058
vn 3.351042E-08 -0.2811057 0.9596769
vn 3.351042E-08 -0.2811057 0.9596769
vn 3.351042E-08 -0.2811057 0.9596769
vn 3.351042E-08 -0.2811057 0.9596769
vt 0.71875 0.71875
vt 0.71875 0.71875
vt 0.71875 0.5
vt 0.71875 0.5
vt 0.9375 0.71875
vt 0.9375 0.71875
vt 0.9375 0.5
vt 0.9375 0.5
vt 0.9375 0.71875
vt 0.71875 0.71875
vt 0.71875 0.5
vt 0.9375 0.5
vt 0.71875 0.9375
vt 0.71875 0.9375
vt 0.71875 0.71875
vt 0.71875 0.71875
vt 0.71875 0.71875
vt 0.5 0.71875
vt 0.5 0.5
vt 0.71875 0.5
vt 0.71875 0.9375
vt 0.71875 0.9375
vt 0.71875 0.71875
vt 0.71875 0.71875
f 73/73/73 75/75/75 76/76/76
f 73/73/73 74/74/74 75/75/75
f 77/77/77 79/79/79 80/80/80
f 77/77/77 78/78/78 79/79/79
f 81/81/81 83/83/83 84/84/84
f 81/81/81 82/82/82 83/83/83
f 85/85/85 87/87/87 88/88/88
f 85/85/85 86/86/86 87/87/87
f 89/89/89 91/91/91 92/92/92
f 89/89/89 90/90/90 91/91/91
f 93/93/93 95/95/95 96/96/96
f 93/93/93 94/94/94 95/95/95

# leave
v -0.03125 -0.5116019 -0.04007067
v -0.03125 -0.5116019 -0.04007067
v -0.03125001 -0.3886182 -0.4599292
v -0.03125001 -0.3886182 -0.4599292
v 0.4062499 -0.5116019 -0.04007072
v 0.4062499 -0.5116019 -0.04007072
v 0.4062499 -0.3886182 -0.4599293
v 0.4062499 -0.3886182 -0.4599293
v 0.4062499 -0.5116019 -0.04007072
v -0.03125 -0.5116019 -0.04007067
v -0.03125001 -0.3886182 -0.4599292
v 0.4062499 -0.3886182 -0.4599293
v -0.03125001 -0.3886182 -0.4599292
v -0.03125001 -0.3886182 -0.4599292
v 0.4062499 -0.3886182 -0.4599293
v 0.4062499 -0.3886182 -0.4599293
v -0.03125 -0.5116019 -0.04007067
v 0.4062499 -0.5116019 -0.04007072
v 0.4062499 -0.3886182 -0.4599293
v -0.03125001 -0.3886182 -0.4599292
v 0.4062499 -0.5116019 -0.04007072
v 0.4062499 -0.5116019 -0.04007072
v -0.03125 -0.5116019 -0.04007067
v -0.03125 -0.5116019 -0.04007067
vn -1 0 1.192093E-07
vn -1 0 1.192093E-07
vn -1 0 1.192093E-07
vn -1 0 1.192093E-07
vn 1 0 -1.192093E-07
vn 1 0 -1.192093E-07
vn 1 0 -1.192093E-07
vn 1 0 -1.192093E-07
vn 1.144024E-07 -0.9596769 -0.2811057
vn 1.144024E-07 -0.9596769 -0.2811057
vn 1.144024E-07 -0.9596769 -0.2811057
vn 1.144024E-07 -0.9596769 -0.2811057
vn -3.351042E-08 0.2811056 -0.9596769
vn -3.351042E-08 0.2811056 -0.9596769
vn -3.351042E-08 0.2811056 -0.9596769
vn -3.351042E-08 0.2811056 -0.9596769
vn -1.144024E-07 0.9596769 0.2811057
vn -1.144024E-07 0.9596769 0.2811057
vn -1.144024E-07 0.9596769 0.2811057
vn -1.144024E-07 0.9596769 0.2811057
vn 3.351042E-08 -0.2811056 0.9596769
vn 3.351042E-08 -0.2811056 0.9596769
vn 3.351042E-08 -0.2811056 0.9596769
vn 3.351042E-08 -0.2811056 0.9596769
vt 0.71875 0.9375
vt 0.71875 0.9375
vt 0.71875 0.71875
vt 0.71875 0.71875
vt 0.9375 0.9375
vt 0.9375 0.9375
vt 0.9375 0.71875
vt 0.9375 0.71875
vt 0.9375 0.9375
vt 0.71875 0.9375
vt 0.71875 0.71875
vt 0.9375 0.71875
vt 0.71875 1.15625
vt 0.71875 1.15625
vt 0.71875 0.9375
vt 0.71875 0.9375
vt 0.71875 0.9375
vt 0.5 0.9375
vt 0.5 0.71875
vt 0.71875 0.71875
vt 0.71875 1.15625
vt 0.71875 1.15625
vt 0.71875 0.9375
vt 0.71875 0.9375
f 97/97/97 99/99/99 100/100/100
f 97/97/97 98/98/98 99/99/99
f 101/101/101 103/103/103 104/104/104
f 101/101/101 102/102/102 103/103/103
f 105/105/105 107/107/107 108/108/108
f 105/105/105 106/106/106 107/107/107
f 109/109/109 111/111/111 112/112/112
f 109/109/109 110/110/110 111/111/111
f 113/113/113 115/115/115 116/116/116
f 113/113/113 114/114/114 115/115/115
f 117/117/117 119/119/119 120/120/120
f 117/117/117 118/118/118 119/119/119

