# Blender v2.79 (sub 0) OBJ File: 'bush2.blend'
# www.blender.org
mtllib agriculture_huckleberry_bush_2.mtl
o nodebox8
v 0.167279 -0.164145 -0.218750
v 0.167279 -0.164145 0.118750
v 0.167279 0.173355 0.118750
v 0.167279 0.173355 -0.218750
v -0.170221 -0.164145 -0.218750
v -0.170221 -0.164145 0.118750
v -0.170221 0.173355 0.118750
v -0.170221 0.173355 -0.218750
v 0.448529 -0.501645 -0.218750
v 0.448529 -0.501645 0.118750
v 0.448529 -0.164145 0.118750
v 0.448529 -0.164145 -0.218750
v 0.167279 -0.501645 -0.218750
v 0.167279 -0.501645 0.118750
v 0.167279 -0.164145 0.118750
v 0.167279 -0.164145 -0.218750
v 0.167279 -0.501645 0.118750
v 0.167279 -0.501645 0.400000
v 0.167279 -0.164145 0.400000
v 0.167279 -0.164145 0.118750
v -0.170221 -0.501645 0.118750
v -0.170221 -0.501645 0.400000
v -0.170221 -0.164145 0.400000
v -0.170221 -0.164145 0.118750
v -0.170221 -0.501645 -0.218750
v -0.170221 -0.501645 0.118750
v -0.170221 -0.164145 0.118750
v -0.170221 -0.164145 -0.218750
v -0.451471 -0.501645 -0.218750
v -0.451471 -0.501645 0.118750
v -0.451471 -0.164145 0.118750
v -0.451471 -0.164145 -0.218750
v 0.167279 -0.501644 -0.500000
v 0.167279 -0.501645 -0.218750
v 0.167279 -0.164145 -0.218750
v 0.167279 -0.164145 -0.500000
v -0.170221 -0.501644 -0.500000
v -0.170221 -0.501645 -0.218750
v -0.170221 -0.164145 -0.218750
v -0.170221 -0.164145 -0.500000
v 0.167279 -0.501645 -0.218750
v 0.167279 -0.501645 0.118750
v 0.167279 -0.164145 0.118750
v 0.167279 -0.164145 -0.218750
v -0.170221 -0.501645 -0.218750
v -0.170221 -0.501645 0.118750
v -0.170221 -0.164145 0.118750
v -0.170221 -0.164145 -0.218750
vt 0.328284 0.592113
vt 0.328284 0.690698
vt 0.229699 0.690698
vt 0.229699 0.592113
vt 0.232311 0.591549
vt 0.232311 0.690411
vt 0.331174 0.690411
vt 0.331174 0.591549
vt 0.233825 0.591278
vt 0.332507 0.591278
vt 0.332507 0.689960
vt 0.233825 0.689960
vt 0.332919 0.592287
vt 0.231054 0.592287
vt 0.231054 0.694152
vt 0.332919 0.694152
vt 0.672021 0.502694
vt 0.581439 0.502694
vt 0.581439 0.593276
vt 0.672021 0.593276
vt 0.673987 0.493528
vt 0.575402 0.493528
vt 0.575402 0.592113
vt 0.673987 0.592113
vt 0.151589 0.492595
vt 0.233825 0.492595
vt 0.233825 0.591278
vt 0.151589 0.591278
vt 0.417806 0.490422
vt 0.332919 0.490422
vt 0.332919 0.592287
vt 0.417806 0.592287
vt 0.755488 0.590455
vt 0.755488 0.492612
vt 0.673952 0.492612
vt 0.673952 0.590455
vt 0.407025 0.590755
vt 0.324881 0.590755
vt 0.324881 0.492182
vt 0.407025 0.492182
vt 0.229699 0.493528
vt 0.229699 0.592113
vt 0.147544 0.592113
vt 0.147544 0.493528
vt 0.331174 0.492687
vt 0.331174 0.591549
vt 0.413559 0.591549
vt 0.413559 0.492687
vt 0.676669 0.490422
vt 0.676669 0.592287
vt 0.574804 0.592287
vt 0.574804 0.490422
vt 0.673952 0.492612
vt 0.673952 0.411076
vt 0.576109 0.411076
vt 0.576109 0.492612
vt 0.324881 0.492182
vt 0.226308 0.492182
vt 0.226308 0.410038
vt 0.324881 0.410038
vt 0.578015 0.492687
vt 0.578015 0.591549
vt 0.676877 0.591549
vt 0.676877 0.492687
vt 0.332507 0.492595
vt 0.414742 0.492595
vt 0.414742 0.591278
vt 0.332507 0.591278
vt 0.231054 0.490422
vt 0.146166 0.490422
vt 0.146166 0.592287
vt 0.231054 0.592287
vt 0.576109 0.590455
vt 0.576109 0.492612
vt 0.494573 0.492612
vt 0.494573 0.590455
vt 0.226308 0.590755
vt 0.144164 0.590755
vt 0.144164 0.492182
vt 0.226308 0.492182
vt 0.410438 0.493528
vt 0.410438 0.592113
vt 0.328284 0.592113
vt 0.328284 0.493528
vt 0.149926 0.492687
vt 0.149926 0.591549
vt 0.232311 0.591549
vt 0.232311 0.492687
vt 0.577575 0.492595
vt 0.577575 0.591278
vt 0.676257 0.591278
vt 0.676257 0.492595
vt 0.673952 0.671991
vt 0.673952 0.590455
vt 0.576109 0.590455
vt 0.576109 0.671991
vt 0.324881 0.672899
vt 0.226308 0.672899
vt 0.226308 0.590755
vt 0.324881 0.590755
vt 0.673987 0.493528
vt 0.673987 0.592113
vt 0.575402 0.592113
vt 0.575402 0.493528
vt 0.578015 0.492687
vt 0.676877 0.492687
vt 0.676877 0.591549
vt 0.578015 0.591549
vt 0.577575 0.492595
vt 0.676257 0.492595
vt 0.676257 0.591278
vt 0.577575 0.591278
vt 0.676669 0.490422
vt 0.574804 0.490422
vt 0.574804 0.592287
vt 0.676669 0.592287
vt 0.673952 0.590455
vt 0.673952 0.492612
vt 0.576109 0.492612
vt 0.576109 0.590455
vn 1.0000 -0.0000 0.0000
vn 0.0000 0.0000 -1.0000
vn 0.0000 1.0000 0.0000
vn -1.0000 0.0000 0.0000
vn 0.0000 -1.0000 0.0000
vn 0.0000 -0.0000 1.0000
usemtl None
s off
f 1/1/1 4/2/1 3/3/1 2/4/1
f 5/5/1 8/6/1 7/7/1 6/8/1
f 1/9/2 5/10/2 8/11/2 4/12/2
f 2/13/2 6/14/2 7/15/2 3/16/2
f 1/17/3 5/18/3 6/19/3 2/20/3
f 13/21/4 14/22/4 15/23/4 16/24/4
f 9/25/2 13/26/2 16/27/2 12/28/2
f 10/29/2 14/30/2 15/31/2 11/32/2
f 9/33/5 10/34/5 14/35/5 13/36/5
f 12/37/3 16/38/3 15/39/3 11/40/3
f 17/41/1 20/42/1 19/43/1 18/44/1
f 21/45/1 24/46/1 23/47/1 22/48/1
f 17/49/6 20/50/6 24/51/6 21/52/6
f 17/53/5 18/54/5 22/55/5 21/56/5
f 20/57/3 24/58/3 23/59/3 19/60/3
f 25/61/1 28/62/1 27/63/1 26/64/1
f 25/65/2 29/66/2 32/67/2 28/68/2
f 26/69/2 30/70/2 31/71/2 27/72/2
f 25/73/5 26/74/5 30/75/5 29/76/5
f 28/77/3 32/78/3 31/79/3 27/80/3
f 33/81/1 36/82/1 35/83/1 34/84/1
f 37/85/1 40/86/1 39/87/1 38/88/1
f 34/89/6 35/90/6 39/91/6 38/92/6
f 33/93/5 34/94/5 38/95/5 37/96/5
f 36/97/3 40/98/3 39/99/3 35/100/3
f 41/101/1 44/102/1 43/103/1 42/104/1
f 45/105/4 46/106/4 47/107/4 48/108/4
f 41/109/2 45/110/2 48/111/2 44/112/2
f 42/113/2 46/114/2 47/115/2 43/116/2
f 41/117/5 42/118/5 46/119/5 45/120/5
